Coordinates
version=1
nRows=16
nColumns=33
inDegrees=yes

Units are S.I. units (second, meters, Newtons, ...)
Angles are in degrees.

endheader
time	ground_thorax_rot_x	ground_thorax_rot_y	ground_thorax_rot_z	ground_thorax_tx	ground_thorax_ty	ground_thorax_tz	clav_prot_r	clav_elev_r	scapula_abduction_r	scapula_elevation_r	scapula_upward_rot_r	scapula_winging_r	shoulder_elv_r	plane_of_elev_r	axial_rot_r	elbow_flexion_r	pro_sup_r	wrist_flex_r	wrist_dev_r	clav_prot_l	clav_elev_l	scapula_abduction_l	scapula_elevation_l	scapula_upward_rot_l	scapula_winging_l	shoulder_elv_l	plane_of_elev_l	axial_rot_l	elbow_flexion_l	pro_sup_l	wrist_flex_l	wrist_dev_l
      2.90000000	      3.20262893	     -4.69224777	     11.53516827	     -0.11752269	      1.04525024	      0.00400490	      7.83033904	     -2.24447921	     24.26695906	     -3.13146169	     18.89302266	     -9.70286820	     55.83053592	     29.86525023	    -22.91694021	    105.19391874	     52.49820719	      8.80998365	     -2.46301002	     11.57600887	     -5.58190287	    -20.81397239	     -0.36104469	     -1.23282869	      6.12781697	     55.99582781	     48.11125610	     11.44027083	    101.09440777	     26.96970142	    -10.36878255	    -11.45495365
      2.91000000	      3.09747131	     -4.61779810	     11.66180887	     -0.11782756	      1.04535457	      0.00384905	      7.97172576	     -2.46743063	     24.18086921	     -3.15782625	     18.38657786	     -9.59286769	     55.61359811	     29.40840606	    -22.92513615	    106.67266250	     52.24431171	      8.90483786	     -2.75744164	     11.60229951	     -5.74870610	    -20.76539765	     -0.31128257	     -1.46412540	      6.04494651	     55.96782603	     48.05756533	     10.97481334	    101.70569021	     27.14367188	    -10.40493213	    -11.53756681
      2.92000000	      3.11559741	     -4.52890246	     11.72525781	     -0.11800618	      1.04535884	      0.00369635	      8.07823805	     -2.70263286	     24.10242551	     -3.22413230	     17.97350200	     -9.47743860	     55.56469746	     28.92186927	    -22.85737070	    108.09447908	     51.97699796	      9.03820342	     -3.02997550	     11.62199430	     -5.89561079	    -20.69951994	     -0.28364065	     -1.70568524	      5.95986389	     55.84769809	     48.06631060	     10.57070393	    102.38585843	     27.32023668	    -10.45708544	    -11.60097640
      2.93000000	      3.13573551	     -4.46951773	     11.76042478	     -0.11814884	      1.04528821	      0.00358840	      8.18588111	     -2.96638362	     24.03026516	     -3.31385797	     17.55982955	     -9.35445182	     55.51762135	     28.45801668	    -22.74941641	    109.47372597	     51.70739543	      9.19751806	     -3.29928830	     11.62279258	     -6.01378506	    -20.61573505	     -0.26678644	     -1.91234816	      5.87630693	     55.73313605	     48.05588201	     10.17862036	    103.07771124	     27.48706309	    -10.49830468	    -11.65443350
      2.94000000	      3.15810702	     -4.41249258	     11.75622324	     -0.11825098	      1.04518883	      0.00353915	      8.29874685	     -3.23031966	     23.95904881	     -3.39827423	     17.13195483	     -9.23402989	     55.46019495	     28.04451333	    -22.59140726	    110.82129631	     51.46519388	      9.37709859	     -3.57030082	     11.62479156	     -6.13035421	    -20.53494117	     -0.25024268	     -2.11627495	      5.79538502	     55.64805272	     48.05104332	      9.78508801	    103.79537741	     27.62066715	    -10.51805865	    -11.71552599
      2.95000000	      3.29608400	     -4.36675848	     11.64899785	     -0.11820047	      1.04489445	      0.00365681	      8.34571687	     -3.40353367	     23.82610428	     -3.43543414	     16.79658775	     -9.11769696	     55.45481779	     27.76107800	    -22.41816433	    112.09037894	     51.30322123	      9.54142832	     -3.79287842	     11.59620863	     -6.16199159	    -20.42806657	     -0.28059446	     -2.25346144	      5.72708661	     55.63208422	     48.03557407	      9.60474227	    104.58151559	     27.65419323	    -10.56050853	    -11.80623288
      2.96000000	      3.19846322	     -4.28280992	     11.81116849	     -0.11844820	      1.04507557	      0.00343188	      8.53689178	     -3.76131347	     23.74328130	     -3.51949467	     16.13098910	     -8.95266733	     55.29848699	     27.14486811	    -22.26594917	    113.53558105	     51.02247832	      9.77150117	     -4.14141050	     11.63477463	     -6.43227707	    -20.35261582	     -0.19297621	     -2.61030265	      5.59518876	     55.49136542	     47.98729126	      9.00143901	    105.13721383	     27.82338629	    -10.48257651	    -11.84527158
      2.97000000	      3.20988832	     -4.21890256	     11.88176903	     -0.11856706	      1.04508224	      0.00331335	      8.69070677	     -4.18686042	     23.67829725	     -3.70111738	     15.58343313	     -8.75950986	     55.28968902	     26.53670010	    -22.06015244	    114.89095013	     50.70107000	     10.04837605	     -4.48773382	     11.61634211	     -6.63564418	    -20.20839925	     -0.13620371	     -2.89795987	      5.45415146	     55.29866037	     47.95442728	      8.46311845	    105.76638254	     28.00663585	    -10.39005061	    -11.86283304
      2.98000000	      3.23978288	     -4.20270594	     11.84765100	     -0.11847784	      1.04503107	      0.00329402	      8.79928979	     -4.55982366	     23.58947697	     -3.86033229	     15.11197808	     -8.59325404	     55.25433776	     26.04558086	    -21.86334125	    116.20745079	     50.26735336	     10.30863615	     -4.61788695	     11.56072115	     -6.75947951	    -20.03581100	     -0.10785191	     -3.09001147	      5.32993593	     55.17065059	     47.90743554	      8.03011928	    106.46040853	     28.14457592	    -10.30674889	    -11.89914071
      2.99000000	      3.21682268	     -4.15204470	     11.88460424	     -0.11845157	      1.04513209	      0.00324225	      8.92659044	     -4.93941910	     23.48227107	     -4.00121085	     14.56888178	     -8.40647099	     55.11173629	     25.43875323	    -21.80278242	    117.69907669	     49.34246535	     10.61310449	     -4.26531715	     11.50428335	     -6.96185262	    -19.84065353	     -0.03629912	     -3.34423998	      5.16657212	     55.01317432	     47.83534771	      7.47926634	    107.09799611	     28.30176247	    -10.16192666	    -11.92914644
      3.00000000	      3.35867381	     -4.04397665	     11.80820052	     -0.11793128	      1.04533586	      0.00293941	      9.01404832	     -5.74531981	     23.69573203	     -4.69883729	     14.57176955	     -8.17207357	     55.37008953	     24.01311051	    -22.15453876	    119.39040171	     43.48547551	     11.64194137	      1.66548441	     11.16982580	     -7.21442802	    -19.20289728	      0.11284141	     -3.51840891	      4.79383506	     54.07774000	     48.08548997	      6.42661797	    107.77830496	     28.83386158	     -9.57268294	    -11.68533272
      3.01000000	      3.10509164	     -4.26766042	     11.59585696	     -0.11789905	      1.04531828	      0.00301851	      9.28147571	     -6.25441449	     24.29142877	     -5.19000967	     14.73364310	     -8.20361475	     54.53111264	     22.84252018	    -22.93711580	    119.82690113	     47.58534434	     17.35733057	      1.62541553	     10.95595567	     -6.89601987	    -18.97396963	     -0.01852927	     -3.15995148	      4.82079253	     53.68609563	     47.83937931	      5.79790123	    108.53710163	     29.12156090	     -9.34931914	    -11.73270934
      3.02000000	      3.23106009	     -4.22868256	     11.69426661	     -0.11777732	      1.04498006	      0.00303526	      9.39804883	     -6.27328096	     24.14923017	     -5.02475907	     14.20503192	     -8.14306401	     54.21123274	     22.42914968	    -22.54667626	    120.83227132	     47.74783490	     17.53685918	      1.56174535	     11.02071944	     -7.02205064	    -18.95074995	     -0.04725271	     -3.48778027	      4.75192229	     53.63024148	     47.76042570	      5.44269481	    109.18876941	     29.13268811	     -9.32283427	    -11.84743152
      3.03000000	      3.52934921	     -4.40762914	     11.53867882	     -0.11705778	      1.04443149	      0.00308160	      9.25249677	     -6.21577319	     24.72857881	     -5.40641054	     15.48196379	     -8.38698616	     52.66642621	     21.39718527	    -20.39331414	    121.66378911	     37.04877538	     13.06361212	    -11.05909683	     10.39084117	     -7.06192922	    -17.94866780	      0.06866754	     -3.29756177	      4.31815604	     52.50564195	     47.89304536	      4.49893312	    109.93454986	     29.66334453	     -8.49552803	    -11.61139679
      3.04000000	      3.31924496	     -4.32076579	     11.54540451	     -0.11726680	      1.04510247	      0.00304639	      9.30276047	     -7.73532931	     24.26053604	     -6.39345796	     14.50174569	     -7.55650743	     53.48192166	     20.59596143	    -20.13157606	    122.35882047	     37.20886911	     15.04907424	    -12.46949590	     10.58990539	     -7.35298697	    -18.18082397	      0.20068253	     -3.59867435	      4.30621615	     52.92416648	     47.51160913	      4.09546517	    110.48636515	     29.64422322	     -8.75556696	    -11.86892119
      3.05000000	      3.45012763	     -4.25035178	     11.51645649	     -0.11700756	      1.04467101	      0.00315486	      9.38217252	     -7.75234086	     24.08120581	     -6.24223216	     14.01295450	     -7.48610079	     53.32796903	     20.29598759	    -19.88069718	    123.41791941	     37.18875696	     15.25009534	    -12.65707906	     10.63995554	     -7.41079764	    -18.15997084	      0.14354979	     -3.85348426	      4.26500120	     52.94401279	     47.53225003	      3.83365699	    111.09556278	     29.62651385	     -8.76316252	    -11.95867802
